<svg width="24" height="24" viewBox="0 0 24 24" fill="none" xmlns="http://www.w3.org/2000/svg">
<path d="M5.775 22C5.24167 22 4.79567 21.8 4.437 21.4C4.07833 21 3.93267 20.5333 4 20H8.075L9.075 16H11.075L12.575 10H5.25L5.525 7.75C5.59167 7.25 5.81667 6.83333 6.2 6.5C6.58333 6.16667 7.025 6 7.525 6H9.5C9.63333 4.75 10.0627 3.771 10.788 3.063C11.5133 2.355 12.5007 2.00067 13.75 2C14.8167 2 15.7043 2.396 16.413 3.188C17.1217 3.98 17.4673 4.91733 17.45 6H20C20.6 6 21.1 6.225 21.5 6.675C21.9 7.125 22.0583 7.65 21.975 8.25L20.475 20.25C20.4083 20.75 20.1873 21.1667 19.812 21.5C19.4367 21.8333 18.9993 22 18.5 22H5.775ZM1 18L1.5 16H7L6.5 18H1ZM3 14L3.5 12H10L9.5 14H3ZM11.5 6H15.475C15.4917 5.45 15.3043 4.97933 14.913 4.588C14.5217 4.19667 14.0507 4.00067 13.5 4C12.9167 4 12.454 4.17933 12.112 4.538C11.77 4.89667 11.566 5.384 11.5 6Z" fill="#0D99FF"/>
</svg>
